<svg width="300" height="100" viewBox="0 0 300 100" xmlns="http://www.w3.org/2000/svg">
  <defs>
    <!-- Main gradient for the diamond shape -->
    <linearGradient id="mainGradient" x1="0%" y1="0%" x2="100%" y2="100%">
      <stop offset="0%" style="stop-color:#4F46E5"/>
      <stop offset="50%" style="stop-color:#7C3AED"/>
      <stop offset="100%" style="stop-color:#1D4ED8"/>
    </linearGradient>
    
    <!-- Text gradient -->
    <linearGradient id="textGradient" x1="0%" y1="0%" x2="100%" y2="0%">
      <stop offset="0%" style="stop-color:#0F172A"/>
      <stop offset="100%" style="stop-color:#334155"/>
    </linearGradient>
    
    <!-- Shadow filter -->
    <filter id="shadow" x="-50%" y="-50%" width="200%" height="200%">
      <feDropShadow dx="2" dy="4" stdDeviation="3" flood-color="#000000" flood-opacity="0.3"/>
    </filter>
  </defs>
  
  <!-- Main diamond shape (rotated square) -->
  <g transform="translate(35, 35)">
    <rect x="0" y="0" width="30" height="30" rx="4" 
          fill="url(#mainGradient)" 
          filter="url(#shadow)"
          transform="rotate(45 15 15)"/>
    
    <!-- Trending up arrow icon inside diamond -->
    <g transform="translate(15, 15) rotate(-45) translate(-7, -7)">
      <polyline points="23,18 13.5,8.5 8.5,13.5 1,6" 
                stroke="white" 
                stroke-width="2" 
                fill="none" 
                stroke-linecap="round" 
                stroke-linejoin="round"/>
      <polyline points="17,8.5 23,8.5 23,14.5" 
                stroke="white" 
                stroke-width="2" 
                fill="none" 
                stroke-linecap="round" 
                stroke-linejoin="round"/>
    </g>
  </g>
  
  <!-- Magic sparkle -->
  <g transform="translate(55, 25)">
    <path d="M8 2L10 6L14 8L10 10L8 14L6 10L2 8L6 6Z" 
          fill="#EAB308" 
          opacity="0.9">
      <animateTransform attributeName="transform" 
                        type="scale" 
                        values="1;1.2;1" 
                        dur="2s" 
                        repeatCount="indefinite"/>
    </path>
  </g>
  
  <!-- Main text -->
  <text x="85" y="45" 
        font-family="Arial, sans-serif" 
        font-size="28" 
        font-weight="bold" 
        fill="url(#textGradient)">ValuationGenie</text>
  
  <!-- Tagline -->
  <text x="85" y="65" 
        font-family="Arial, sans-serif" 
        font-size="12" 
        font-weight="500" 
        fill="#64748B">Instant Business Valuation</text>
</svg>