<svg width="300" height="100" viewBox="0 0 300 100" xmlns="http://www.w3.org/2000/svg">
  <defs>
    <linearGradient id="whiteGradient" x1="0%" y1="0%" x2="100%" y2="100%">
      <stop offset="0%" style="stop-color:#FFFFFF"/>
      <stop offset="50%" style="stop-color:#F8FAFC"/>
      <stop offset="100%" style="stop-color:#E2E8F0"/>
    </linearGradient>
    
    <filter id="whiteShadow" x="-50%" y="-50%" width="200%" height="200%">
      <feDropShadow dx="1" dy="2" stdDeviation="2" flood-color="#000000" flood-opacity="0.1"/>
    </filter>
  </defs>
  
  <!-- Main diamond shape -->
  <g transform="translate(35, 35)">
    <rect x="0" y="0" width="30" height="30" rx="4" 
          fill="url(#whiteGradient)" 
          filter="url(#whiteShadow)"
          transform="rotate(45 15 15)"/>
    
    <!-- Trending up arrow -->
    <g transform="translate(15, 15) rotate(-45) translate(-7, -7)">
      <polyline points="23,18 13.5,8.5 8.5,13.5 1,6" 
                stroke="#4F46E5" 
                stroke-width="2" 
                fill="none" 
                stroke-linecap="round" 
                stroke-linejoin="round"/>
      <polyline points="17,8.5 23,8.5 23,14.5" 
                stroke="#4F46E5" 
                stroke-width="2" 
                fill="none" 
                stroke-linecap="round" 
                stroke-linejoin="round"/>
    </g>
  </g>
  
  <!-- Magic sparkle -->
  <g transform="translate(55, 25)">
    <path d="M8 2L10 6L14 8L10 10L8 14L6 10L2 8L6 6Z" 
          fill="#EAB308" 
          opacity="0.9">
      <animateTransform attributeName="transform" 
                        type="scale" 
                        values="1;1.2;1" 
                        dur="2s" 
                        repeatCount="indefinite"/>
    </path>
  </g>
  
  <!-- Main text in white -->
  <text x="85" y="45" 
        font-family="Arial, sans-serif" 
        font-size="28" 
        font-weight="bold" 
        fill="#FFFFFF">ValuationGenie</text>
  
  <!-- Tagline in light gray -->
  <text x="85" y="65" 
        font-family="Arial, sans-serif" 
        font-size="12" 
        font-weight="500" 
        fill="#CBD5E1">Instant Business Valuation</text>
</svg>